<mxfile host="app.diagrams.net" modified="2021-05-18T05:17:20.046Z" agent="5.0 (Windows NT 10.0; Win64; x64) AppleWebKit/537.36 (KHTML, like Gecko) Chrome/90.0.4430.212 Safari/537.36" etag="E3aTLo44EEVnPCAcf6JZ" version="14.6.13" type="github">
  <diagram name="Page-1" id="74e2e168-ea6b-b213-b513-2b3c1d86103e">
    <mxGraphModel dx="716" dy="378" grid="1" gridSize="10" guides="1" tooltips="1" connect="1" arrows="1" fold="1" page="1" pageScale="1" pageWidth="1100" pageHeight="850" background="#ffffff" math="0" shadow="0">
      <root>
        <mxCell id="0" />
        <mxCell id="1" parent="0" />
        <mxCell id="6bH4ngYLY3THlVqLCyTo-12" value="" style="edgeStyle=orthogonalEdgeStyle;rounded=0;orthogonalLoop=1;jettySize=auto;html=1;" edge="1" parent="1" source="6bH4ngYLY3THlVqLCyTo-4" target="6bH4ngYLY3THlVqLCyTo-7">
          <mxGeometry relative="1" as="geometry" />
        </mxCell>
        <mxCell id="6bH4ngYLY3THlVqLCyTo-4" value="User&lt;br&gt;" style="shape=umlActor;verticalLabelPosition=bottom;verticalAlign=top;html=1;outlineConnect=0;" vertex="1" parent="1">
          <mxGeometry x="110" y="20" width="30" height="60" as="geometry" />
        </mxCell>
        <mxCell id="6bH4ngYLY3THlVqLCyTo-17" value="" style="edgeStyle=orthogonalEdgeStyle;rounded=0;orthogonalLoop=1;jettySize=auto;html=1;" edge="1" parent="1" source="6bH4ngYLY3THlVqLCyTo-7" target="6bH4ngYLY3THlVqLCyTo-13">
          <mxGeometry relative="1" as="geometry" />
        </mxCell>
        <mxCell id="6bH4ngYLY3THlVqLCyTo-21" value="" style="edgeStyle=orthogonalEdgeStyle;rounded=0;orthogonalLoop=1;jettySize=auto;html=1;" edge="1" parent="1" source="6bH4ngYLY3THlVqLCyTo-7" target="6bH4ngYLY3THlVqLCyTo-20">
          <mxGeometry relative="1" as="geometry" />
        </mxCell>
        <mxCell id="6bH4ngYLY3THlVqLCyTo-7" value="Homepage" style="rounded=0;whiteSpace=wrap;html=1;" vertex="1" parent="1">
          <mxGeometry x="230" y="30" width="70" height="40" as="geometry" />
        </mxCell>
        <mxCell id="6bH4ngYLY3THlVqLCyTo-18" value="" style="edgeStyle=orthogonalEdgeStyle;rounded=0;orthogonalLoop=1;jettySize=auto;html=1;" edge="1" parent="1" source="6bH4ngYLY3THlVqLCyTo-13" target="6bH4ngYLY3THlVqLCyTo-14">
          <mxGeometry relative="1" as="geometry" />
        </mxCell>
        <mxCell id="6bH4ngYLY3THlVqLCyTo-23" value="" style="edgeStyle=orthogonalEdgeStyle;rounded=0;orthogonalLoop=1;jettySize=auto;html=1;" edge="1" parent="1" source="6bH4ngYLY3THlVqLCyTo-13" target="6bH4ngYLY3THlVqLCyTo-22">
          <mxGeometry relative="1" as="geometry" />
        </mxCell>
        <mxCell id="6bH4ngYLY3THlVqLCyTo-13" value="Destination" style="rounded=0;whiteSpace=wrap;html=1;" vertex="1" parent="1">
          <mxGeometry x="390" y="30" width="70" height="40" as="geometry" />
        </mxCell>
        <mxCell id="6bH4ngYLY3THlVqLCyTo-19" value="" style="edgeStyle=orthogonalEdgeStyle;rounded=0;orthogonalLoop=1;jettySize=auto;html=1;" edge="1" parent="1" source="6bH4ngYLY3THlVqLCyTo-14" target="6bH4ngYLY3THlVqLCyTo-16">
          <mxGeometry relative="1" as="geometry" />
        </mxCell>
        <mxCell id="6bH4ngYLY3THlVqLCyTo-38" value="" style="edgeStyle=orthogonalEdgeStyle;rounded=0;orthogonalLoop=1;jettySize=auto;html=1;" edge="1" parent="1" source="6bH4ngYLY3THlVqLCyTo-14" target="6bH4ngYLY3THlVqLCyTo-36">
          <mxGeometry relative="1" as="geometry">
            <mxPoint x="550" y="200" as="targetPoint" />
            <Array as="points">
              <mxPoint x="550" y="205" />
            </Array>
          </mxGeometry>
        </mxCell>
        <mxCell id="6bH4ngYLY3THlVqLCyTo-14" value="Registration" style="rounded=0;whiteSpace=wrap;html=1;" vertex="1" parent="1">
          <mxGeometry x="515" y="30" width="70" height="40" as="geometry" />
        </mxCell>
        <mxCell id="6bH4ngYLY3THlVqLCyTo-16" value="Login" style="rounded=0;whiteSpace=wrap;html=1;" vertex="1" parent="1">
          <mxGeometry x="670" y="30" width="70" height="40" as="geometry" />
        </mxCell>
        <mxCell id="6bH4ngYLY3THlVqLCyTo-20" value="Introduction&lt;br&gt;&lt;br&gt;General information" style="whiteSpace=wrap;html=1;aspect=fixed;" vertex="1" parent="1">
          <mxGeometry x="225" y="110" width="80" height="80" as="geometry" />
        </mxCell>
        <mxCell id="6bH4ngYLY3THlVqLCyTo-26" value="" style="edgeStyle=orthogonalEdgeStyle;rounded=0;orthogonalLoop=1;jettySize=auto;html=1;" edge="1" parent="1" source="6bH4ngYLY3THlVqLCyTo-22" target="6bH4ngYLY3THlVqLCyTo-25">
          <mxGeometry relative="1" as="geometry" />
        </mxCell>
        <mxCell id="6bH4ngYLY3THlVqLCyTo-22" value="Hotel cards&lt;br&gt;(description and more information)" style="whiteSpace=wrap;html=1;aspect=fixed;" vertex="1" parent="1">
          <mxGeometry x="385" y="110" width="80" height="80" as="geometry" />
        </mxCell>
        <mxCell id="6bH4ngYLY3THlVqLCyTo-29" value="" style="edgeStyle=orthogonalEdgeStyle;rounded=0;orthogonalLoop=1;jettySize=auto;html=1;" edge="1" parent="1" source="6bH4ngYLY3THlVqLCyTo-25" target="6bH4ngYLY3THlVqLCyTo-27">
          <mxGeometry relative="1" as="geometry" />
        </mxCell>
        <mxCell id="6bH4ngYLY3THlVqLCyTo-25" value="Reservation" style="rounded=0;whiteSpace=wrap;html=1;" vertex="1" parent="1">
          <mxGeometry x="390" y="230" width="70" height="40" as="geometry" />
        </mxCell>
        <mxCell id="6bH4ngYLY3THlVqLCyTo-33" value="" style="edgeStyle=orthogonalEdgeStyle;rounded=0;orthogonalLoop=1;jettySize=auto;html=1;entryX=0;entryY=0.5;entryDx=0;entryDy=0;" edge="1" parent="1" source="6bH4ngYLY3THlVqLCyTo-27" target="6bH4ngYLY3THlVqLCyTo-22">
          <mxGeometry relative="1" as="geometry">
            <mxPoint x="350" y="150" as="targetPoint" />
            <Array as="points">
              <mxPoint x="350" y="350" />
              <mxPoint x="350" y="150" />
            </Array>
          </mxGeometry>
        </mxCell>
        <mxCell id="6bH4ngYLY3THlVqLCyTo-27" value="Database" style="shape=datastore;whiteSpace=wrap;html=1;" vertex="1" parent="1">
          <mxGeometry x="390" y="320" width="70" height="60" as="geometry" />
        </mxCell>
        <mxCell id="6bH4ngYLY3THlVqLCyTo-40" style="edgeStyle=orthogonalEdgeStyle;rounded=0;orthogonalLoop=1;jettySize=auto;html=1;exitX=1;exitY=0.5;exitDx=0;exitDy=0;exitPerimeter=0;entryX=0.622;entryY=1.01;entryDx=0;entryDy=0;entryPerimeter=0;" edge="1" parent="1" source="6bH4ngYLY3THlVqLCyTo-36" target="6bH4ngYLY3THlVqLCyTo-16">
          <mxGeometry relative="1" as="geometry">
            <mxPoint x="705" y="70" as="targetPoint" />
          </mxGeometry>
        </mxCell>
        <mxCell id="6bH4ngYLY3THlVqLCyTo-36" value="MongoDB" style="strokeWidth=2;html=1;shape=mxgraph.flowchart.database;whiteSpace=wrap;" vertex="1" parent="1">
          <mxGeometry x="600" y="170" width="80" height="70" as="geometry" />
        </mxCell>
      </root>
    </mxGraphModel>
  </diagram>
</mxfile>
